<?xml version="1.0" standalone="no"?>
<!DOCTYPE svg PUBLIC "-//W3C//DTD SVG 20010904//EN"
 "http://www.w3.org/TR/2001/REC-SVG-20010904/DTD/svg10.dtd">
<svg version="1.0" xmlns="http://www.w3.org/2000/svg"
 width="512.000000pt" height="512.000000pt" viewBox="0 0 512.000000 512.000000"
 preserveAspectRatio="xMidYMid meet">

<g transform="translate(0.000000,512.000000) scale(0.100000,-0.100000)"
fill="#000000" stroke="none">
<path d="M2962 4944 c-108 -29 -211 -116 -257 -217 -31 -69 -119 -546 -110
-600 12 -83 65 -150 145 -186 38 -17 66 -21 173 -21 l127 0 0 -49 c0 -45 -2
-50 -30 -61 -42 -17 -104 -90 -118 -138 -7 -22 -12 -84 -12 -138 l0 -100 -135
-117 -135 -117 -395 0 c-312 0 -403 -3 -428 -14 -37 -15 -87 -69 -87 -93 0
-17 -8 -16 -115 7 -69 15 -110 9 -125 -19 -5 -11 -41 -135 -80 -278 -39 -142
-72 -262 -73 -266 -1 -4 -38 17 -82 48 l-79 55 -149 0 c-144 0 -149 -1 -172
-25 l-25 -24 0 -231 0 -231 25 -24 c24 -25 27 -25 190 -25 91 0 165 -3 165 -7
-1 -5 -20 -77 -43 -162 l-43 -155 -135 -1 c-155 -1 -221 -16 -345 -75 -211
-101 -371 -297 -430 -525 -28 -105 -25 -295 4 -399 81 -285 291 -491 577 -567
111 -29 279 -29 390 0 224 60 415 213 515 415 59 120 82 218 83 356 0 143 -18
219 -83 356 -39 80 -65 118 -125 182 -77 82 -179 158 -251 188 -22 9 -41 18
-43 20 -3 3 78 314 85 322 1 2 65 -34 142 -79 l139 -84 279 -638 c169 -388
287 -645 299 -653 16 -11 105 -14 489 -14 l469 0 113 112 c73 71 115 106 118
97 65 -218 172 -368 343 -479 260 -171 606 -170 867 0 425 278 488 869 131
1231 -104 105 -221 173 -375 215 -95 26 -300 24 -395 -4 -38 -11 -70 -20 -71
-19 0 1 -15 27 -32 58 -18 31 -32 59 -32 63 0 3 24 6 53 6 28 0 144 18 257 41
187 38 210 40 264 30 117 -21 266 -110 373 -223 l51 -55 57 44 c32 23 60 45
62 47 9 8 -61 87 -125 142 l-64 54 66 0 66 0 0 40 0 40 40 0 40 0 0 95 c0 88
-2 98 -25 120 -24 25 -26 25 -215 25 -189 0 -191 0 -215 -25 -22 -21 -25 -33
-25 -90 l0 -66 -37 7 c-41 7 -53 18 -53 47 0 35 -51 126 -90 161 -96 87 -173
100 -405 67 -82 -12 -165 -23 -182 -25 l-33 -5 0 661 c0 477 -3 672 -12 700
-14 48 -76 121 -118 138 -28 11 -30 16 -30 61 l0 49 54 0 c85 0 90 8 147 220
48 177 50 190 46 285 -5 118 -28 187 -94 287 -75 114 -200 201 -334 233 -83
19 -304 19 -377 -1z m128 -391 c0 -5 -7 -41 -17 -80 l-17 -73 -128 0 c-70 0
-128 4 -128 8 0 13 20 125 25 140 3 9 39 12 135 12 71 0 130 -3 130 -7z m270
-673 l0 -40 -80 0 -80 0 0 40 0 40 80 0 80 0 0 -40z m-1280 -920 l0 -80 -88 0
-88 0 -26 80 -26 80 114 0 114 0 0 -80z m-356 -60 c2 0 10 -17 16 -37 21 -65
51 -104 94 -124 38 -17 74 -19 478 -19 l438 0 42 37 c24 20 53 46 66 57 l23
20 -3 -112 -3 -113 -154 -70 -154 -71 -66 30 c-36 17 -88 37 -116 45 -74 23
-387 60 -474 55 -85 -4 -169 -36 -227 -88 -33 -29 -38 -30 -131 -30 -86 0 -95
2 -91 18 3 9 31 112 63 229 l57 211 69 -19 c38 -10 71 -19 73 -19z m-549 -477
c47 -31 84 -61 82 -67 -2 -6 -10 -35 -17 -63 l-14 -53 -133 0 -133 0 0 120 0
120 65 0 c63 0 69 -2 150 -57z m974 -4 c91 -12 176 -25 189 -30 24 -9 24 -10
-15 -38 -96 -69 -136 -149 -137 -268 l0 -83 -226 0 -225 0 -24 66 c-19 53 -22
75 -16 121 15 120 55 186 137 227 64 32 99 33 317 5z m-603 -121 c-3 -13 -11
-57 -18 -98 -6 -41 -13 -77 -14 -79 -2 -2 -30 13 -63 34 -64 39 -69 48 -50
106 6 19 12 40 15 47 2 8 25 12 70 12 64 0 66 -1 60 -22z m2604 -117 c39 -20
82 -77 78 -100 -2 -10 -30 -21 -88 -33 -47 -9 -92 -17 -100 -18 -14 0 -126
137 -118 145 5 5 119 22 158 24 19 0 51 -7 70 -18z m-366 -106 l56 -75 -98 0
-99 0 -46 69 -46 70 27 4 c15 2 55 5 88 6 l62 1 56 -75z m-374 -21 c18 -25 30
-47 27 -50 -2 -2 -100 -3 -218 -2 l-214 3 180 47 c99 25 183 47 187 47 4 1 21
-20 38 -45z m-1442 -335 l30 -120 -46 3 -46 3 -52 118 -52 117 68 0 68 0 30
-121z m334 -154 c37 -148 68 -272 68 -275 0 -3 -22 -13 -50 -23 -87 -31 -142
-96 -158 -188 -7 -39 -9 -35 -94 161 l-86 200 76 0 c64 0 79 3 99 22 31 29 29
53 -12 218 -19 76 -35 144 -35 150 0 7 22 10 62 8 l62 -3 68 -270z m1208 270
c0 -3 -39 -57 -86 -120 l-86 -115 -262 0 -261 0 -24 108 c-13 59 -26 113 -28
120 -4 9 74 12 371 12 207 0 376 -2 376 -5z m206 -147 l24 -47 -49 -35 c-69
-51 -171 -162 -215 -234 -53 -88 -94 -208 -108 -318 -9 -70 -16 -94 -27 -94
-8 0 -69 -54 -136 -120 l-121 -120 -395 0 -396 0 -36 80 -36 80 380 0 c215 0
388 4 397 9 9 5 163 205 342 445 360 481 327 450 376 354z m-2678 -103 c3 -2
-9 -53 -25 -112 l-29 -108 -68 -7 c-139 -14 -260 -99 -319 -226 -41 -89 -49
-207 -18 -294 99 -284 451 -366 659 -154 93 94 137 226 113 342 -22 113 -87
215 -167 265 -19 11 -34 26 -34 32 -1 30 56 217 65 217 6 0 39 -17 74 -37 93
-56 191 -164 239 -265 51 -106 65 -169 64 -287 -1 -268 -178 -509 -436 -596
-288 -96 -620 38 -761 306 -205 391 33 861 470 928 55 9 163 6 173 -4z m3286
-11 c314 -80 520 -402 462 -723 -55 -305 -313 -523 -621 -524 -112 -1 -177 14
-282 64 -89 42 -191 128 -244 206 l-30 43 384 0 385 0 53 28 c39 20 63 42 89
80 32 49 36 52 77 52 l43 0 0 80 0 80 -43 0 c-41 0 -45 3 -77 52 -51 77 -115
108 -225 108 l-84 0 -118 217 c-65 119 -119 220 -121 224 -3 6 51 20 128 33
40 7 160 -4 224 -20z m-438 -206 c36 -68 82 -151 101 -185 l35 -63 -237 0
-237 0 6 28 c19 78 81 179 161 260 45 45 87 82 93 82 6 0 41 -55 78 -122z
m-803 -112 c-76 -101 -141 -181 -144 -178 -4 4 -24 81 -44 172 -21 91 -40 171
-42 178 -4 9 36 12 181 12 l186 0 -137 -184z m-2172 -169 l-29 -106 51 -15
c112 -32 104 -33 117 16 37 137 44 163 47 167 7 9 56 -45 76 -84 30 -56 29
-155 0 -211 -31 -58 -84 -101 -150 -120 -72 -21 -144 -7 -205 39 -150 115
-107 358 72 411 25 7 46 13 47 12 1 -1 -11 -50 -26 -109z m3460 -156 c37 -37
37 -65 0 -102 l-29 -29 -400 0 -400 0 -5 33 c-3 17 -9 53 -13 80 l-6 47 412 0
412 0 29 -29z"/>
</g>
</svg>
