<?xml version="1.0" standalone="no"?>
<!DOCTYPE svg PUBLIC "-//W3C//DTD SVG 20010904//EN"
 "http://www.w3.org/TR/2001/REC-SVG-20010904/DTD/svg10.dtd">
<svg version="1.0" xmlns="http://www.w3.org/2000/svg"
 width="512.000000pt" height="512.000000pt" viewBox="0 0 512.000000 512.000000"
 preserveAspectRatio="xMidYMid meet">

<g transform="translate(0.000000,512.000000) scale(0.100000,-0.100000)"
fill="#000000" stroke="none">
<path d="M1812 3950 c-62 -28 -784 -662 -813 -714 -29 -51 -32 -145 -6 -194
15 -27 483 -638 521 -679 8 -9 49 16 171 103 88 64 167 121 177 128 14 10 -7
41 -177 261 -147 189 -191 253 -182 261 119 108 419 364 426 364 8 0 11 -150
11 -476 l0 -476 27 -32 c81 -96 83 -215 6 -305 l-33 -39 0 -955 c0 -605 4
-974 10 -1008 21 -112 99 -179 209 -180 80 -1 141 34 186 105 l30 49 5 741 c5
710 6 742 24 773 60 99 198 119 277 41 61 -62 59 -32 59 -809 0 -504 3 -723
11 -750 7 -21 25 -54 41 -74 93 -112 262 -104 344 17 l29 43 3 1009 2 1010
-24 25 c-36 37 -56 93 -56 151 0 59 16 100 59 154 l31 39 0 474 c0 418 2 474
15 469 22 -8 423 -359 424 -371 1 -5 -85 -120 -189 -254 -105 -135 -187 -248
-183 -252 18 -16 334 -239 342 -242 13 -3 520 650 539 693 29 69 14 171 -35
225 -53 60 -752 660 -787 676 -35 16 -67 19 -229 19 -205 0 -232 -5 -278 -56
-14 -16 -70 -103 -124 -194 -54 -91 -103 -171 -108 -178 -7 -9 -39 37 -119
170 -124 206 -129 213 -180 239 -33 17 -60 19 -225 19 -164 0 -193 -3 -231
-20z m926 -1567 l-3 -88 -177 -3 -178 -2 0 90 0 90 180 0 181 0 -3 -87z"/>
</g>
</svg>
